<?xml version="1.0" standalone="no"?>
<!DOCTYPE svg PUBLIC "-//W3C//DTD SVG 20010904//EN"
 "http://www.w3.org/TR/2001/REC-SVG-20010904/DTD/svg10.dtd">
<svg version="1.0" xmlns="http://www.w3.org/2000/svg"
 width="700.000000pt" height="700.000000pt" viewBox="0 0 700.000000 700.000000"
 preserveAspectRatio="xMidYMid meet">
<metadata>
Created by potrace 1.14, written by Peter Selinger 2001-2017
</metadata>
<g transform="translate(0.000000,700.000000) scale(0.100000,-0.100000)"
fill="#000000" stroke="none">
<path d="M395 6986 c-190 -46 -345 -205 -384 -393 -14 -67 -14 -1446 -1 -1518
35 -183 200 -351 390 -395 78 -19 2317 -19 2403 -1 190 41 336 181 387 373 18
69 19 110 17 798 -2 399 -6 738 -10 754 -13 50 -49 129 -78 172 -30 44 -104
119 -137 138 -72 42 -94 51 -152 67 -60 16 -147 18 -1225 17 -878 0 -1172 -3
-1210 -12z"/>
<path d="M4180 6985 c-142 -35 -273 -142 -335 -273 -57 -121 -55 -38 -52
-1782 l2 -1605 22 -60 c29 -75 83 -158 140 -212 59 -57 172 -111 260 -126 51
-9 374 -12 1204 -11 l1134 0 75 23 c92 28 150 62 211 121 68 67 117 150 139
236 19 74 20 126 20 1653 0 1091 -3 1595 -11 1635 -36 197 -189 355 -389 402
-82 20 -2340 18 -2420 -1z"/>
<path d="M497 4084 c-1 -1 -24 -4 -52 -7 -156 -16 -306 -120 -383 -264 -66
-125 -62 -11 -59 -1793 l2 -1615 22 -58 c12 -33 36 -81 53 -108 35 -54 105
-129 120 -129 5 0 10 -4 10 -9 0 -14 140 -78 195 -90 54 -11 2373 -11 2410 1
184 58 296 158 363 325 l27 68 3 1602 c2 1454 1 1610 -14 1675 -36 159 -128
274 -279 350 -101 51 -91 51 -1293 52 -618 1 -1124 0 -1125 0z"/>
<path d="M4260 2329 c-91 -11 -112 -17 -186 -54 -119 -58 -211 -164 -256 -293
l-23 -67 0 -735 c0 -404 3 -749 7 -767 40 -198 199 -360 393 -402 17 -3 561
-6 1210 -6 1108 0 1183 1 1237 18 103 33 236 135 275 212 9 17 19 32 23 35 4
3 18 34 31 70 l24 65 2 745 c3 701 2 749 -16 806 -50 166 -168 293 -320 345
-31 11 -72 22 -91 26 -48 8 -2241 10 -2310 2z"/>
</g>
</svg>
